# xmcd
#
# Track frame offsets:
#	150
#	10418
#	23310
#	38535
#	48383
#	69016
#	82308
#	97760
#	112265
#	126504
#	138892
#	149931
#
# Disc length: 2135 seconds
#
# Revision: 0
# Processed by: cddbd v1.5.2PL0 Copyright (c) Steve Scherf et al.
# Submitted via: EZCDAudioConverter 6.0.9.1
#
DISCID=a108550c
DTITLE=Various Artist - Disney Country Music for Kids
DYEAR=1992
DGENRE=Children's
TTITLE0=Merle Haggard - Bingo
TTITLE1=Herb Pederson - Baby Had A Banjo
TTITLE2=Patty Loveless - So Many Questions, So Little Time
TTITLE3=Jay Levy - There's A Fiddle In The Middle
TTITLE4=Mary Chapin Carpenter - Jenny Dreamed Of Trains
TTITLE5=Chris Hillman - Little Birdie
TTITLE6=Herb Pederson - Clean Room Blues
TTITLE7=Glen Campbell - I Love To Play Outside
TTITLE8=Emmylou Harris - On The Wings Of Horses
TTITLE9=The Oak Ridge Boys - Oh, Susanna!
TTITLE10=Buck Owens - If You Can't Find A Reason To Be Happy
TTITLE11=Country Music For Kids Chorus - Country Lullaby
EXTD=
EXTT0=
EXTT1=
EXTT2=
EXTT3=
EXTT4=
EXTT5=
EXTT6=
EXTT7=
EXTT8=
EXTT9=
EXTT10=
EXTT11=
PLAYORDER=
